<svg width="90" height="20" viewBox="0 0 90 20" fill="none" xmlns="http://www.w3.org/2000/svg">
<g clip-path="url(#clip0_3880_240)">
<path d="M2.86988 8.06944L6.6921 3.29167C7.06194 2.83015 7.27748 2.26412 7.30828 1.67349C7.33908 1.08287 7.1836 0.497489 6.86377 0L1.27877 6.97889C0.6185 7.80434 0.258789 8.82991 0.258789 9.88694C0.258789 10.944 0.6185 11.9696 1.27877 12.795L4.67155 17.0361C4.99178 16.5386 5.14761 15.9531 5.117 15.3622C5.0864 14.7714 4.87091 14.2051 4.50099 13.7433C4.31179 13.5067 4.20706 13.2136 4.20344 12.9107C4.19982 12.6077 4.2975 12.3122 4.48099 12.0711L5.9721 10.1194C6.34177 9.6578 6.55711 9.09171 6.58772 8.50109C6.61832 7.91047 6.46264 7.32515 6.14266 6.82778L4.36988 9.15611C4.36988 9.15611 3.68599 10.045 3.24988 10.6289C3.01724 10.9053 2.84858 11.2297 2.75599 11.5789C2.74544 11.5617 2.63655 11.3717 2.62599 11.3533C2.32871 10.8458 2.19283 10.2599 2.23639 9.6734C2.27996 9.08686 2.5009 8.52745 2.86988 8.06944Z" fill="white"/>
<path d="M10.8645 11.7635L7.04225 16.5413C6.67257 17.0029 6.45724 17.569 6.42663 18.1597C6.39603 18.7503 6.55171 19.3356 6.87169 19.833L12.455 12.8552C13.1154 12.0296 13.4751 11.0038 13.4751 9.94658C13.4751 8.88935 13.1154 7.86359 12.455 7.03797L9.06224 2.79297C8.74226 3.29034 8.58659 3.87566 8.61719 4.46628C8.64779 5.0569 8.86313 5.62299 9.2328 6.08464C9.42152 6.3212 9.5259 6.61398 9.52943 6.91657C9.53295 7.21917 9.4354 7.51429 9.25225 7.75519L7.76225 9.71352C7.39306 10.1754 7.17811 10.7415 7.14771 11.3321C7.11731 11.9226 7.27299 12.5078 7.5928 13.0052L9.37058 10.6774C9.37058 10.6774 10.0534 9.78297 10.4895 9.2063C10.7233 8.93032 10.8921 8.60526 10.9834 8.25519C10.9939 8.27352 11.1028 8.46352 11.1134 8.48075C11.4097 8.98861 11.5446 9.57458 11.5001 10.1609C11.4557 10.7472 11.234 11.3061 10.8645 11.7635Z" fill="white"/>
<path d="M19.6607 7.32922C19.6428 7.09981 19.6706 6.86913 19.7425 6.65055C19.8144 6.43197 19.929 6.22984 20.0796 6.05589C20.1985 5.94016 20.3396 5.84962 20.4943 5.78967C20.649 5.72973 20.8143 5.70161 20.9801 5.707H24.0668V4.45089H20.9801C20.6458 4.43864 20.3124 4.49393 19.9999 4.61343C19.6874 4.73294 19.4021 4.91422 19.1613 5.14644C18.6298 5.74597 18.3573 6.53158 18.4035 7.33144V14.4564H19.6585V10.0198H24.1507V8.76366H19.6607V7.32922Z" fill="white" stroke="white" stroke-width="0.2"/>
<path d="M29.8747 12.7708C29.1725 13.112 28.411 13.3144 27.632 13.3669C27.2175 13.3669 26.6658 13.2435 26.6658 12.1858V7.17188H25.4092V12.1813C25.4092 13.8013 26.1608 14.623 27.6314 14.623C28.4019 14.5792 29.1597 14.408 29.8742 14.1163V14.5402H31.1303V7.17188H29.8742L29.8747 12.7708Z" fill="white" stroke="white" stroke-width="0.2"/>
<path d="M36.655 13.6677C36.4328 13.6816 36.2061 13.6955 36.0334 13.6955C35.9133 13.7083 35.792 13.6973 35.6762 13.663C35.5605 13.6288 35.4526 13.5721 35.3589 13.496C35.1948 13.2819 35.1201 13.0124 35.1506 12.7444V8.26658H36.8533V7.00658H35.1522V5.60547H33.8961V7.00658H32.3467V8.26658H33.8989V12.746C33.8392 13.0427 33.8525 13.3495 33.9377 13.6399C34.0228 13.9303 34.1773 14.1956 34.3877 14.4131C34.5981 14.6306 34.8583 14.7937 35.1457 14.8884C35.4332 14.983 35.7393 15.0064 36.0378 14.9566C36.3084 14.9566 36.5606 14.9416 36.7756 14.9288L36.9422 14.9182L36.8134 13.6632L36.655 13.6677Z" fill="white" stroke="white" stroke-width="0.2"/>
<path d="M42.6204 12.7708C41.9191 13.1117 41.1585 13.3141 40.3804 13.3669C39.966 13.3669 39.4143 13.2435 39.4143 12.1858V7.17188H38.1582V12.1813C38.1582 13.8013 38.9099 14.623 40.3804 14.623C41.1505 14.579 41.908 14.4078 42.6221 14.1163V14.5402H43.8782V7.17188H42.6221L42.6204 12.7708Z" fill="white" stroke="white" stroke-width="0.2"/>
<path d="M49.0022 7.01953C48.279 7.04179 47.5703 7.22836 46.9299 7.56509V7.13564H45.6738V14.4945H46.9299V9.0712C47.5258 8.57905 48.2686 8.29917 49.0411 8.27564H49.2022L49.1644 7.01953H49.0022Z" fill="white" stroke="white" stroke-width="0.2"/>
<path d="M53.0972 6.94941C52.4225 6.9509 51.761 7.13645 51.1839 7.48608L51.1711 7.49441C50.425 8.08385 49.96 9.32774 49.9289 10.8227C49.8978 12.2089 50.2017 13.2383 50.8317 13.8827C51.1649 14.1888 51.5575 14.4229 51.9851 14.5707C52.4127 14.7185 52.8662 14.7766 53.3173 14.7416C53.8887 14.7257 54.4581 14.6649 55.02 14.56L55.3656 14.5044L55.8189 14.4216L55.6522 13.1655L55.4856 13.1989L55.3784 13.2266C55.3139 13.2439 55.2345 13.2655 55.1472 13.2822C54.5459 13.4021 53.9353 13.4704 53.3222 13.4861C51.9834 13.4861 51.3061 12.8239 51.1995 11.4044H56.0461L56.0517 11.2488C56.1073 9.61885 55.7661 8.3083 55.11 7.6533C54.5581 7.16249 53.8347 6.90951 53.0972 6.94941ZM51.885 8.51996C52.2505 8.30091 52.6713 8.19156 53.0972 8.20496C53.5015 8.17537 53.9023 8.29671 54.2223 8.54552L54.3295 8.65274C54.6448 9.0785 54.8132 9.59517 54.8095 10.125H51.2311C51.3323 9.2983 51.5567 8.74663 51.885 8.51996Z" fill="white" stroke="white" stroke-width="0.2"/>
<path d="M60.0538 10.2121C59.3505 9.84936 58.5505 9.43436 58.5882 8.93436C58.626 8.43436 58.9405 8.24825 59.7693 8.24825C60.3587 8.25961 60.9469 8.30506 61.531 8.38436L62.1127 8.42214L62.2199 7.16825L61.651 7.13047H61.6155C61.0044 7.04863 60.3895 6.99856 59.7732 6.98047C58.6805 6.98047 57.411 7.19547 57.3327 8.86269C57.2588 10.151 58.3621 10.7427 59.4282 11.3071L59.526 11.3588C60.3077 11.7616 61.116 12.1788 61.0816 12.7888C61.0721 12.951 61.0421 13.4471 59.6088 13.4471C58.931 13.4346 58.2557 13.3628 57.5905 13.2327L57.4349 13.2049L57.1943 14.4271L57.3521 14.4571C58.0937 14.6155 58.8485 14.7038 59.6066 14.721C61.7732 14.721 62.2905 13.7055 62.336 12.8516C62.4132 11.4249 61.1049 10.751 60.0538 10.2121Z" fill="white" stroke="white" stroke-width="0.2"/>
<path d="M68.0083 5.77564C68.4999 5.77564 69.0816 5.80787 69.7511 5.8712L69.9133 5.8862L70.0205 4.6312L69.8638 4.6162C69.1544 4.55064 68.5638 4.51953 68.0088 4.51953C66.7311 4.51953 64.9605 4.72231 64.3283 6.47787C63.9909 7.4779 63.8293 8.52879 63.8505 9.58398C63.8452 10.7006 64.0417 11.8089 64.4305 12.8556C64.9621 13.9295 66.2183 14.4973 68.0638 14.4973C68.6405 14.4973 69.2588 14.4556 69.7933 14.4145L69.9555 14.4029L69.8483 13.1479L69.6894 13.1595C69.1655 13.2001 68.6244 13.2423 68.0672 13.2423C66.6477 13.2423 65.8566 12.9579 65.5783 12.3501C65.2489 11.4664 65.0946 10.5271 65.1238 9.58453C65.1126 8.68274 65.2438 7.78483 65.5127 6.92398C65.8099 6.15064 66.6283 5.77564 68.0083 5.77564Z" fill="white" stroke="white" stroke-width="0.2"/>
<path d="M73.244 6.93641C72.5308 6.9516 71.82 7.02592 71.119 7.15863L70.9612 7.1853L71.164 8.40752L71.3207 8.38363C71.9573 8.27371 72.601 8.21021 73.2468 8.19363C73.7089 8.14245 74.1732 8.26875 74.5457 8.54696C74.6225 8.63079 74.6812 8.72957 74.7181 8.83711C74.755 8.94465 74.7693 9.05864 74.7601 9.17196V9.78585C74.5896 9.7803 74.4168 9.7803 74.2479 9.7803C73.5904 9.77814 72.9342 9.83935 72.2885 9.96308C71.7799 10.1262 71.3371 10.4484 71.0255 10.8822C70.7139 11.316 70.55 11.8385 70.5579 12.3725C70.5533 12.7411 70.6362 13.1054 70.7999 13.4357C70.9636 13.7659 71.2034 14.0525 71.4996 14.272C71.9034 14.5602 72.393 14.703 72.8884 14.677C73.5248 14.6575 74.1533 14.5297 74.7468 14.2992V14.5142H76.0018V14.3531C76.0018 13.4864 76.0018 12.6203 76.0096 11.7547C76.0174 10.8892 76.0162 10.037 76.0162 9.17808C76.038 8.89763 76.0022 8.61568 75.9109 8.3496C75.8197 8.08351 75.675 7.83891 75.4857 7.63086C75.1771 7.37156 74.8199 7.17656 74.4349 7.0573C74.05 6.93805 73.6451 6.89694 73.244 6.93641ZM74.244 11.0359C74.3718 11.0359 74.4879 11.0359 74.5996 11.0425H74.7434V12.9314C74.1663 13.2255 73.5324 13.3911 72.8851 13.417C72.6624 13.4384 72.4384 13.394 72.2407 13.2892C72.1055 13.1767 71.9965 13.0362 71.9211 12.8773C71.8458 12.7184 71.806 12.545 71.8046 12.3692C71.7893 12.1189 71.8538 11.8702 71.9889 11.659C72.124 11.4477 72.3227 11.2848 72.5562 11.1936C73.1121 11.0783 73.6792 11.0256 74.2468 11.0364L74.244 11.0359Z" fill="white" stroke="white" stroke-width="0.2"/>
<path d="M80.2006 10.2121C79.4972 9.84936 78.6972 9.43436 78.735 8.93436C78.7728 8.43436 79.0872 8.24825 79.9161 8.24825C80.5055 8.25961 81.0937 8.30506 81.6778 8.38436L82.2595 8.42214L82.3667 7.16825L81.7978 7.13047H81.7622C81.1523 7.04871 80.5385 6.99864 79.9233 6.98047C78.8306 6.98047 77.5611 7.19547 77.4828 8.86269C77.4089 10.151 78.5123 10.7427 79.5784 11.3071L79.6761 11.3588C80.4578 11.7616 81.2661 12.1788 81.2317 12.7888C81.2217 12.951 81.1922 13.4471 79.7589 13.4471C79.0811 13.4344 78.4058 13.3625 77.7406 13.2321L77.585 13.2044L77.3467 14.4249L77.5045 14.4549C78.246 14.6133 79.0008 14.7016 79.7589 14.7188C81.9256 14.7188 82.4378 13.7032 82.4883 12.8494C82.5606 11.4249 81.2517 10.751 80.2006 10.2121Z" fill="white" stroke="white" stroke-width="0.2"/>
<path d="M86.7906 7.07477C86.244 7.08993 85.7001 7.15652 85.1661 7.27366V4.57422H83.9072V14.4698H85.1633V8.54588C85.6978 8.42545 86.2429 8.35864 86.7906 8.34644C87.8706 8.34644 88.3745 8.81866 88.3745 9.83366V14.3464H89.6239V9.83088C89.6239 8.00144 88.6722 7.07477 86.7906 7.07477Z" fill="white" stroke="white" stroke-width="0.2"/>
</g>
<defs>
<clipPath id="clip0_3880_240">
<rect width="90" height="20" fill="white"/>
</clipPath>
</defs>
</svg>
