<svg width="24" height="24" viewBox="0 0 24 24" fill="none" xmlns="http://www.w3.org/2000/svg">
<path fill-rule="evenodd" clip-rule="evenodd" d="M7.71322 4.75927C8.13254 4.39984 8.18109 3.76854 7.82166 3.34922C7.46223 2.9299 6.83093 2.88134 6.41161 3.24077L3.35569 5.86021C3.13817 6.04364 3 6.31819 3 6.625C3 6.87641 3.09278 7.10615 3.24597 7.28186C3.26097 7.29908 3.27662 7.31585 3.29288 7.33211L6.3553 10.3946C6.74582 10.7851 7.37898 10.7852 7.76951 10.3946C8.16004 10.0041 8.16005 9.37095 7.76953 8.98042L6.41415 7.625H14.0598C16.534 7.625 18.6501 9.65966 18.7466 12.1327C18.8484 14.7446 16.6757 17 14.0598 17H6.6243C6.07202 17 5.6243 17.4477 5.6243 18C5.6243 18.5523 6.07202 19 6.6243 19H14.0598C17.808 19 20.8912 15.8038 20.745 12.0548C20.6067 8.50819 17.6082 5.625 14.0598 5.625H6.70322L7.71322 4.75927Z" fill="#BB8300"/>
</svg>
